<?xml version="1.0" encoding="UTF-8"?>
<svg version="1.1" xmlns="http://www.w3.org/2000/svg" width="145" height="85">
<path d="M0 0 C1.35627251 -0.00856522 1.35627251 -0.00856522 2.73994446 -0.01730347 C3.72961212 -0.01842133 4.71927979 -0.01953918 5.73893738 -0.02069092 C6.78312332 -0.02565582 7.82730927 -0.03062073 8.90313721 -0.03573608 C12.36427973 -0.05036456 15.82537642 -0.05716089 19.2865448 -0.06268311 C21.68927004 -0.06843401 24.09199526 -0.07419175 26.49472046 -0.07995605 C31.53608921 -0.09046801 36.57744201 -0.0963094 41.61882019 -0.09979248 C48.07857492 -0.10527744 54.53811888 -0.1293049 60.9978075 -0.15776443 C65.96234758 -0.17638842 70.92683686 -0.1815963 75.89140892 -0.18312836 C78.27284078 -0.18615597 80.65427172 -0.1941881 83.03566933 -0.20731354 C86.36791135 -0.2243685 89.69963817 -0.22249486 93.03190613 -0.21600342 C94.0155011 -0.2252182 94.99909607 -0.23443298 96.01249695 -0.243927 C102.19660126 -0.20619013 106.67837425 0.51907703 111.4427948 4.82403564 C111.92103699 5.40282471 112.39927917 5.98161377 112.89201355 6.57794189 C113.38314636 7.15415283 113.87427917 7.73036377 114.3802948 8.32403564 C117.76470985 13.45026691 117.01161729 20.26074458 116.57951355 26.14044189 C115.1805896 31.83899974 111.97505799 36.62642317 107.01261902 39.76275635 C102.66229944 41.50851466 99.09749259 41.52071074 94.46232605 41.43341064 C93.60516998 41.4291658 92.74801392 41.42492096 91.86488342 41.42054749 C89.14443191 41.40384075 86.42473873 41.36620409 83.70451355 41.32794189 C81.8529618 41.31288468 80.00139836 41.29919809 78.14982605 41.28692627 C73.62609922 41.25396354 69.10293468 41.20223727 64.57951355 41.14044189 C64.595224 41.87158203 64.61093445 42.60272217 64.62712097 43.35601807 C64.68961706 46.67991349 64.72855107 50.0036851 64.76701355 53.32794189 C64.79215027 54.47843018 64.81728699 55.62891846 64.84318542 56.81427002 C64.85285339 57.92608643 64.86252136 59.03790283 64.8724823 60.18341064 C64.88819275 61.20458984 64.9039032 62.22576904 64.92008972 63.27789307 C64.52063031 66.63535659 63.67187811 68.49478913 61.57951355 71.14044189 C58.01701355 71.57794189 58.01701355 71.57794189 54.57951355 71.14044189 C51.61302499 68.17395334 52.25478842 64.93467834 52.24357605 60.95684814 C52.23359085 59.73988503 52.23359085 59.73988503 52.22340393 58.49833679 C52.21327105 56.78099844 52.20858711 55.06362066 52.20890808 53.34625244 C52.204536 50.71644307 52.16822874 48.08831333 52.1302948 45.45880127 C52.12442656 43.79148931 52.12045721 42.12416937 52.11857605 40.45684814 C52.10420502 39.66927628 52.08983398 38.88170441 52.07502747 38.07026672 C52.10118863 34.94923186 52.1587656 32.72295008 54.01847839 30.14825439 C57.98217589 28.58846953 61.79333848 28.69958805 66.01701355 28.69903564 C67.39264465 28.67922386 67.39264465 28.67922386 68.79606628 28.65901184 C71.72391301 28.61814144 74.65144622 28.59645267 77.57951355 28.57794189 C80.50748509 28.55414311 83.43516181 28.52600243 86.36296082 28.48616028 C88.18365717 28.46183808 90.00450967 28.44695121 91.82536316 28.44255066 C92.65302185 28.43236404 93.48068054 28.42217743 94.3334198 28.41168213 C95.05859802 28.40740707 95.78377625 28.40313202 96.53092957 28.39872742 C98.96307566 28.09208237 100.53584937 27.49523383 102.57951355 26.14044189 C103.94182043 21.08044489 103.33890736 17.96854584 101.57951355 13.14044189 C88.20180826 13.09416006 74.82412192 13.05859384 61.44635296 13.03681755 C55.23493312 13.02636756 49.02356794 13.01218617 42.81217957 12.98956299 C36.82107822 12.96787798 30.83002954 12.95588243 24.83889198 12.95068741 C22.54988081 12.94698384 20.26087261 12.93975198 17.97188377 12.92898178 C14.77291443 12.91452466 11.57416445 12.91246154 8.37516785 12.91339111 C7.42282761 12.90620056 6.47048737 12.89901001 5.48928833 12.89160156 C4.18311554 12.89572556 4.18311554 12.89572556 2.85055542 12.89993286 C1.71536736 12.89716748 1.71536736 12.89716748 0.55724621 12.89434624 C-1.74043544 13.03039316 -1.74043544 13.03039316 -4.42048645 15.14044189 C-5.55477648 19.7648551 -5.77331131 22.93012372 -3.42048645 27.14044189 C-0.52952011 28.58592507 2.04771719 28.32412834 5.27482605 28.38653564 C6.6446233 28.41950776 8.01441481 28.45271877 9.38420105 28.48614502 C11.53649977 28.53328456 13.68878117 28.57765248 15.8412323 28.61724854 C36.45400186 29.0149302 36.45400186 29.0149302 43.57951355 36.14044189 C47.78068118 41.93515586 48.20769815 48.17224608 47.57951355 55.14044189 C46.27071542 61.34059574 43.820901 64.64618359 38.57951355 68.14044189 C33.05183796 70.58246845 27.74759632 70.43037271 21.8177948 70.40606689 C20.27638069 70.40893707 20.27638069 70.40893707 18.7038269 70.41186523 C16.53958388 70.41322229 14.37533259 70.40955945 12.21110535 70.40118408 C8.89296829 70.39044498 5.57536859 70.40111267 2.25724792 70.41387939 C0.15242902 70.41255836 -1.95238955 70.40999713 -4.0572052 70.40606689 C-5.05096664 70.41011536 -6.04472809 70.41416382 -7.06860352 70.41833496 C-8.45067741 70.40887848 -8.45067741 70.40887848 -9.860672 70.39923096 C-10.67086288 70.39763977 -11.48105377 70.39604858 -12.3157959 70.39440918 C-14.42048645 70.14044189 -14.42048645 70.14044189 -17.42048645 68.14044189 C-18.08452663 62.05340693 -18.08452663 62.05340693 -16.18501282 59.4418335 C-13.92162954 57.77251983 -12.61061114 57.7626918 -9.81306458 57.75567627 C-8.8819989 57.74556519 -7.95093323 57.7354541 -6.99165344 57.72503662 C-5.98848083 57.72805786 -4.98530823 57.7310791 -3.95173645 57.73419189 C-2.9198822 57.72335571 -1.88802795 57.71251953 -0.8249054 57.70135498 C3.59582407 57.65539103 8.01649791 57.64399713 12.43742371 57.62921143 C15.66208521 57.61355082 18.88625027 57.58055463 22.11076355 57.54669189 C23.11393616 57.54971313 24.11710876 57.55273438 25.15068054 57.55584717 C26.08174622 57.54573608 27.01281189 57.535625 27.97209167 57.52520752 C28.79133118 57.52315308 29.61057068 57.52109863 30.45463562 57.51898193 C33.09080801 57.04935646 33.95249462 56.22827914 35.57951355 54.14044189 C37.05074148 49.95310085 36.31542384 47.16044467 34.57951355 43.14044189 C31.70537925 41.70337474 29.16379809 41.95705588 25.95451355 41.89434814 C24.59383122 41.86136059 23.23315429 41.82814991 21.8724823 41.79473877 C19.73792428 41.747721 17.60337976 41.70338631 15.46867371 41.66363525 C-6.17675248 41.24105095 -6.17675248 41.24105095 -11.85798645 36.82794189 C-17.7318384 30.66756058 -18.80451363 25.25498041 -18.69392395 16.96075439 C-18.20058456 11.87231095 -16.49928498 8.03498328 -12.70173645 4.57403564 C-8.58417965 1.51203895 -5.19422788 0.01966109 0 0 Z " fill="#6EBB25" transform="translate(23.420486450195313,6.85955810546875)"/>
</svg>
